<svg id="Capa_1" enable-background="new 0 0 504.5 504.5" height="512" viewBox="0 0 504.5 504.5" width="512" xmlns="http://www.w3.org/2000/svg"><g><path d="m276.534 14.595h-16.283v-7.095c0-4.142-3.358-7.5-7.5-7.5s-7.5 3.358-7.5 7.5v7.095h-14.709c-4.142 0-7.5 3.358-7.5 7.5s3.358 7.5 7.5 7.5h14.709v42.915c0 4.142 3.358 7.5 7.5 7.5s7.5-3.358 7.5-7.5v-42.915h16.283c4.142 0 7.5-3.358 7.5-7.5s-3.358-7.5-7.5-7.5z" fill="#fed2a4"/><path d="m436.679 240.18v232.78l-21.71 1.86-60.8 5.2-101.92 8.71-144.32-12.41-39.1-3.36v-232.78l183.92-89.58 162.22 79.01z" fill="#fed2a4"/><path d="m374.309 277.78-73.78-32.11v-64.56l-47.78-30.51-91.19 49.35v41.922c0 2.306-1.368 4.393-3.482 5.314l-70.288 30.594c-5.17 2.24-5.77 9.33-1.06 12.41l16.604 10.879c2.868 1.879 4.596 5.077 4.596 8.505v166.746l144.32 12.41 101.92-8.71v-175.93l-.01-.01 21.2-13.89c4.71-3.08 4.11-10.17-1.05-12.41z" fill="#ffbd86"/><path d="m436.679 240.18v232.78l-21.71 1.86v-245.21z" fill="#ffbd86"/><path d="m480.439 482.54v12.38c0 5.29-4.29 9.58-9.58 9.58h-94.99l-21.7-.97-101.92-4.55-122.62 5.52h-95.99c-5.29 0-9.58-4.29-9.58-9.58v-12.38c0-5.29 4.29-9.58 9.58-9.58h437.22c5.29 0 9.58 4.29 9.58 9.58z" fill="#9facba"/><path d="m470.858 472.957h-21.707c5.292 0 9.582 4.29 9.582 9.582v12.379c0 5.292-4.29 9.582-9.582 9.582h21.707c5.292 0 9.582-4.29 9.582-9.582v-12.379c.001-5.292-4.289-9.582-9.582-9.582z" fill="#8d9ca8"/><path d="m354.169 472.96v30.57l-101.92-4.55-122.62 5.52h-21.7v-31.54z" fill="#8d9ca8"/><path d="m457.859 226.29-21.18 13.89-136.15-59.07-47.78-20.73-91.19 39.57-92.73 40.23-21.19-13.89c-4.71-3.08-4.1-10.17 1.07-12.41l112.85-48.99 91.19-39.58 47.78 20.74 156.27 67.83c5.17 2.24 5.77 9.33 1.06 12.41z" fill="#eaa998"/><g fill="#e49280"><path d="m252.749 125.31-91.19 39.58v22.306c0 2.023-1.201 3.853-3.057 4.659l-98.319 42.658 8.646 5.667 92.73-40.233v.004l65.911-28.601 14.428-6.26h-.001l10.852-4.709 47.78 20.73v-35.06z"/><path d="m456.798 213.877-204.047-88.569-10.853 4.711 193.193 83.858c5.167 2.243 5.773 9.329 1.062 12.416l-12.54 8.219 13.061 5.667 21.186-13.885c4.711-3.088 4.105-10.174-1.062-12.417z"/></g><path d="m183.264 125.308h138.976v178.777h-138.976z" fill="#fff3de"/><path d="m300.533 125.308h21.707v178.777h-21.707z" fill="#ffe5c2"/><path d="m332.01 99.644-72.895-34.807c-4.025-1.922-8.703-1.922-12.728 0l-72.895 34.807c-4.691 2.24-7.678 6.976-7.678 12.174 0 7.451 6.04 13.49 13.49 13.49h146.891c7.451 0 13.49-6.04 13.49-13.49.003-5.199-2.984-9.935-7.675-12.174z" fill="#eaa998"/><path d="m332.01 99.644-72.895-34.807c-4.025-1.922-8.703-1.922-12.728 0l-4.49 2.144 68.405 32.663c4.691 2.24 7.678 6.976 7.678 12.174 0 7.451-6.04 13.49-13.49 13.49h21.707c7.451 0 13.49-6.04 13.49-13.49.001-5.199-2.986-9.935-7.677-12.174z" fill="#e49280"/><path d="m375.869 338.11-5.19 51.25 5.19 49.57v34.03l-21.7 1.2-101.41 5.58-123.13-6.78v-34.03l5.48-50.41-5.48-50.41v-34.02l114.61-59.11 9.3-4.8 122.33 63.91z" fill="#fff3de"/><path d="m375.869 338.11-5.19 51.25 5.19 49.57v34.03l-21.7 1.2v-165.38c0-2.85-1.69-5.43-4.3-6.57l-106.96-46.53c-.33-.15-.67-.28-1.01-.42 0-3.42.88-6.92 2.34-10.28l9.3-4.8 122.33 63.91z" fill="#ffe5c2"/><path d="m129.632 472.957v31.542h85.184l37.433-5.519 38.439 5.519h85.184v-31.542z" fill="#eaa998"/><path d="m354.165 472.957h21.707v31.542h-21.707z" fill="#e49280"/><path d="m290.688 504.5h-75.872v-115.692c0-8.05 6.526-14.576 14.576-14.576h46.721c8.05 0 14.576 6.526 14.576 14.576v115.692z" fill="#b6c4cf"/><path d="m276.112 374.232h-21.707c8.05 0 14.576 6.526 14.576 14.576v115.692h21.707v-115.692c0-8.05-6.526-14.576-14.576-14.576z" fill="#9facba"/><path d="m264.623 255.673 111.246 48.412 21.198-13.893c4.709-3.086 4.106-10.167-1.056-12.414l-131.388-57.177c-7.571-3.295-16.171-3.295-23.742 0l-131.388 57.177c-5.162 2.246-5.765 9.328-1.056 12.414l21.198 13.893 111.246-48.412c7.571-3.295 16.171-3.295 23.742 0z" fill="#eaa998"/><g fill="#e49280"><path d="m219.174 255.673-98.201 42.735 8.662 5.677 111.246-48.412c.337-.146.677-.278 1.018-.412-7.319-2.868-15.491-2.736-22.725.412z"/><path d="m396.011 277.778-131.388-57.177c-7.235-3.148-15.406-3.28-22.725-.412.34.133.681.265 1.018.412l131.388 57.177c5.162 2.247 5.765 9.328 1.056 12.414l-12.536 8.217 13.045 5.677 21.198-13.893c4.709-3.087 4.106-10.169-1.056-12.415z"/></g><g><path d="m172.549 388.52c0 21.69-16.09 39.61-36.98 42.5h-.01l-5.09-6-.84-1v-28l2.1-8.45-2.1-6.55v-28.01l.88-.96 5.45-5.97c20.7 3.05 36.59 20.9 36.59 42.44z" fill="#c8effe"/></g><path d="m172.549 388.52c0 21.69-16.09 39.61-36.98 42.5h-.01l-5.09-6c12.22-7.55 20.37-21.07 20.37-36.5 0-15.4-8.13-28.91-20.33-36.47l5.45-5.97c20.7 3.05 36.59 20.9 36.59 42.44z" fill="#99e6fc"/><path d="m129.629 338.11v14.9c17.036 0 31.266 12.003 34.709 28.011h-34.707v15h34.706c-3.444 16.005-17.673 27.999-34.709 27.999v14.91c27.8 0 50.41-22.61 50.41-50.41s-22.609-50.41-50.409-50.41z" fill="#eaa998"/><path d="m253.538 327.676c-4.142 0-7.5-3.358-7.5-7.5v-30.803c0-4.142 3.358-7.5 7.5-7.5s7.5 3.358 7.5 7.5v30.803c0 4.142-3.358 7.5-7.5 7.5z" fill="#eaa998"/><g><path d="m406.165 404.323c-4.142 0-7.5-3.358-7.5-7.5v-24.927c0-4.142 3.358-7.5 7.5-7.5s7.5 3.358 7.5 7.5v24.927c0 4.142-3.358 7.5-7.5 7.5z" fill="#fff3de"/></g><g><path d="m99.339 404.323c-4.142 0-7.5-3.358-7.5-7.5v-24.927c0-4.142 3.358-7.5 7.5-7.5s7.5 3.358 7.5 7.5v24.927c0 4.142-3.358 7.5-7.5 7.5z" fill="#fff3de"/></g><circle cx="252.249" cy="173.159" fill="#ffbd86" r="7.504"/><g><g><path d="m375.869 381.02-2.1 6.55 2.1 8.45v28l-.84 1-5.09 6h-.01c-5.68-.78-11.01-2.68-15.76-5.47-12.7-7.45-21.22-21.24-21.22-37.03 0-15.78 8.52-29.57 21.22-37.03 4.64-2.72 9.83-4.6 15.37-5.41l5.45 5.97.88.96z" fill="#c8effe"/></g><path d="m341.159 381.02h34.71v15h-34.71c1.79 8.32 6.5 15.56 13.01 20.58 5.99 4.66 13.52 7.42 21.7 7.42v14.91c-7.76 0-15.12-1.76-21.7-4.91-16.97-8.12-28.71-25.46-28.71-45.5s11.74-37.38 28.71-45.5c6.58-3.15 13.94-4.91 21.7-4.91v14.9c-8.17 0-15.7 2.76-21.7 7.41-6.51 5.02-11.22 12.27-13.01 20.6z" fill="#eaa998"/><path d="m375.869 381.02-2.1 6.55 2.1 8.45v28l-.84 1-5.09 6h-.01c-5.68-.78-11.01-2.68-15.76-5.47v-74.06c4.64-2.72 9.83-4.6 15.37-5.41l5.45 5.97.88.96z" fill="#99e6fc"/><g fill="#e49280"><path d="m375.869 338.11v14.9c-8.17 0-15.7 2.76-21.7 7.41v-17.4c6.58-3.15 13.94-4.91 21.7-4.91z"/><path d="m354.169 381.02h21.7v15h-21.7z"/><path d="m354.169 416.6c5.99 4.66 13.52 7.42 21.7 7.42v14.91c-7.76 0-15.12-1.76-21.7-4.91z"/></g></g></g></svg>